<svg fill="#dddddd" version="1.1" xmlns="http://www.w3.org/2000/svg" width="35" height="35" viewBox="0 0 1024 1024">
<path d="M1024 349.099l-0.768-3.712-0.725-2.133c-0.427-1.024-0.768-2.133-1.28-3.2-0.128-0.768-0.64-1.451-0.853-2.133l-1.493-2.859-1.28-2.133-1.877-2.56-1.963-1.92-2.56-1.92-1.963-1.28-2.56-1.877-1.877-1.707-0.64-0.853-467.413-312.704c-14.805-9.899-33.963-9.899-48.725 0l-473.771 316.245-1.621 1.707-2.133 2.389-1.579 1.92-2.133 2.56c-0.853 0.725-1.28 1.28-1.28 1.963l-2.133 2.56-0.853 2.56c-0.853 0.427-0.853 1.707-1.28 2.987l-0.427 2.133c-0.811 1.323-0.811 2.603-0.811 3.883v319.872c0 1.877 0.128 3.84 0.427 5.76l0.427 1.963c0.213 1.28 0.427 2.56 0.853 3.669l0.64 2.133c0.427 1.152 0.683 2.261 1.152 3.2l0.939 2.133c0 0.427 0.64 1.707 1.28 2.56l1.28 1.707c0.64 0.427 1.28 1.707 1.92 2.56l1.28 1.707 1.707 1.707c0.427 0.555 0.427 1.28 1.28 1.28l2.56 1.792 1.707 1.28 0.427 0.597 468.053 312.747c6.997 5.12 16 6.955 24.32 6.955s16.64-2.56 24.32-7.68l476.075-315.989 2.219-2.475 1.408-1.92 1.707-2.56 1.28-2.133 1.28-2.987 0.683-2.219 1.28-3.285 0.64-1.92 1.28-3.413v-320c0-2.133 0-4.053-0.683-5.973l-0.597-1.92 1.877 0.128zM512.427 617.045l-155.733-104.107 155.733-104.192 155.733 104.107zM468.309 332.288l-190.848 127.573-154.155-103.083 345.003-229.973zM198.229 512.896l-110.165 73.813v-147.243zM277.461 566.229l190.848 127.573v205.653l-345.003-230.016 154.368-103.125zM556.373 693.803l190.891-127.147 154.155 103.253-345.045 229.973zM826.453 513.323l110.208-73.387v147.456zM747.307 460.416l-190.848-127.616v-206.080l344.96 229.973-154.112 103.040z"></path>
</svg>
