<svg fill="#dddddd" version="1.1" xmlns="http://www.w3.org/2000/svg" width="40" height="35" viewBox="0 0 1024 1024">
<path d="M445.696 911.829c0 22.528-18.261 40.661-40.704 40.661-22.4 0-40.704-18.133-40.704-40.661 0-22.443 18.261-40.704 40.661-40.704 22.357 0 40.576 18.389 40.576 40.747zM698.197 911.829c0 22.528-18.261 40.661-40.747 40.661-22.443 0-40.619-18.133-40.619-40.661 0-22.443 18.048-40.704 40.491-40.704s40.704 18.389 40.704 40.747zM891.904 521.088l-6.656-8.704c-1.963-2.56-4.096-4.949-6.101-7.467-1.92-2.603-4.011-4.821-6.016-7.211-4.437-5.12-8.917-10.197-13.611-15.317l-3.243-3.413-3.883-4.224-5.76-5.589c-0.64-0.768-1.365-1.451-2.133-2.261-49.493-48.597-106.88-84.736-168.747-106.837l-9.813-3.328c0.512-1.152 1.024-2.347 1.493-3.541 17.493-45.397 15.659-94.848-5.12-138.88-20.949-44.16-57.856-76.8-104.021-92.16-27.989-9.216-52.48-13.611-73.003-13.013-1.408-4.48-4.267-24.619 21.163-78.848l-51.499-30.293-12.245 17.024c-14.080 19.413-27.648 38.187-40.32 56.661-13.995-14.72-32.683-23.552-53.12-24.747l-60.075-3.669c-1.408-0.128-2.987-0.128-4.437-0.128-42.24 0-77.227 32.896-79.787 74.88l-3.755 59.819v0.128c-2.603 43.904 31.019 81.707 74.88 84.437l42.752 2.603c-2.773 35.84 3.115 69.12 17.28 98.389-57.429 23.979-110.336 59.776-156.16 105.984-141.013 142.635-141.013 298.795-141.013 424.363v75.733l55.68-59.179c11.349 39.68 27.819 77.099 48.853 111.573h72.405c-35.541-47.531-60.544-103.509-71.68-164.181l81.621-86.613-42.027 131.883 74.24-54.101c131.2-95.317 287.744-117.333 465.493-65.237 77.013 22.699 151.893 1.664 190.848-53.632l4.437-7.040c3.883 21.248 6.016 42.581 6.016 63.829 0 66.688-10.88 157.312-58.88 235.179h68.736c33.109-66.688 50.389-146.432 50.389-235.179-0.043-93.824-33.536-188.629-93.184-267.691zM379.477 264.149c5.248-42.752 24.661-83.157 52.48-126.72 1.067 2.133 2.304 4.139 3.584 6.144 11.264 16.981 30.421 26.667 51.157 25.813 9.259-0.341 25.813 1.067 52.608 9.899 30.464 10.069 54.869 31.744 68.608 60.8s14.891 61.525 3.371 91.691c-7.381 18.987-19.371 34.987-34.389 47.317l-17.408-21.419-0.085-0.128c-11.904-14.549-29.611-22.827-48.384-22.827-14.293 0-28.331 4.992-39.467 14.080-14.251 11.52-21.931 28.16-22.784 45.141-51.2-23.083-76.8-70.101-69.461-129.749zM563.115 482.176l-22.144 18.133c-1.963 1.536-4.053 2.261-6.229 2.261-2.816 0-5.675-1.28-7.552-3.627l-4.736-5.76c-3.541-4.267-2.859-10.667 1.451-14.251l21.76-17.92-45.013-55.424c-4.651-5.675-3.883-14.080 1.877-18.603 2.475-2.048 5.376-3.072 8.277-3.072 3.883 0 7.723 1.621 10.24 4.821l126.421 155.52c4.651 5.76 3.84 14.080-1.792 18.603-1.664 1.237-3.499 2.261-5.376 2.688-0.981 0.256-1.92 0.384-2.987 0.384-3.84 0-7.595-1.707-10.24-4.821l-12.587-15.573-44.587 36.437c-1.963 1.579-4.267 2.347-6.571 2.347-2.901 0-5.931-1.28-7.936-3.84l-20.352-24.704c-3.499-4.352-2.901-10.752 1.493-14.336l44.843-36.565-18.176-22.741zM330.795 207.616l-51.029-3.2c-10.88-0.64-19.2-10.027-18.56-20.821l3.84-59.776c0.597-10.453 9.216-18.603 19.669-18.603h1.024l59.776 3.883c5.248 0.256 10.069 2.56 13.525 6.485 3.541 4.011 5.248 8.96 4.949 14.336l-0.299 4.309c-13.653 24.192-24.96 48.384-32.981 73.387zM865.152 697.472c-24.107 34.347-71.979 46.123-124.757 30.635-165.803-48.683-315.563-38.528-446.635 29.909l69.803-218.581-225.749 239.317c4.224-160.512 104.661-297.216 245.675-354.603 20.096 15.915 44.117 28.16 71.381 35.883 6.827 1.877 13.739 3.157 20.48 4.352-7.808 19.541-5.077 42.539 8.96 60.032l3.2 3.84c-7.339 19.2-4.48 41.6 9.429 58.624l20.267 24.832c11.349 13.867 28.117 21.888 46.037 21.888 13.696 0 27.093-4.736 37.803-13.397l12.16-9.899c7.424 3.157 15.659 4.821 24.149 4.821 4.821 0 9.472-0.427 14.080-1.493 9.301-2.133 18.091-6.4 25.515-12.416 26.581-21.76 30.72-61.227 8.917-87.893l-71.253-87.723c6.187-4.992 11.989-10.411 17.408-16.256 5.76 1.579 11.563 3.328 17.067 5.12 11.349 4.139 22.741 8.448 33.92 13.44 42.88 18.987 83.371 46.933 118.229 80.939 1.237 1.28 2.517 2.347 3.627 3.541l7.253 7.467c1.621 1.664 3.243 3.371 4.736 5.12 3.371 3.627 6.827 7.467 10.197 11.392l5.376 6.4c1.92 2.261 3.669 4.437 5.547 6.827l4.864 6.4c1.707 2.176 3.371 4.352 4.992 6.571 35.755 49.024 42.112 99.371 17.237 134.699zM329.344 175.573l-35.627-2.176 2.261-35.627 35.584 2.176z"></path>
</svg>
