<svg fill="#dddddd" version="1.1" xmlns="http://www.w3.org/2000/svg" width="35" height="35" viewBox="0 0 1024 1024">
<path  d="M0 0v1024h1024v-1024zM850.688 242.603l-54.912 52.651c-3.862 2.96-6.327 7.575-6.327 12.766 0 0.947 0.082 1.874 0.239 2.775l-0.014-0.096v386.859c-0.139 0.794-0.219 1.709-0.219 2.642 0 5.188 2.462 9.8 6.282 12.733l0.038 0.028 53.632 52.651v11.563h-269.739v-11.52l55.552-53.973c5.461-5.461 5.461-7.040 5.461-15.36v-312.747l-154.453 392.32h-20.907l-179.883-392.32v262.955c-0.21 1.465-0.329 3.157-0.329 4.877 0 9.839 3.918 18.762 10.279 25.296l-0.008-0.008 72.277 87.637v11.563h-204.885v-11.52l72.32-87.68c6.063-6.283 9.799-14.847 9.799-24.283 0-2.078-0.181-4.114-0.529-6.092l0.031 0.21v-304.043c0.088-0.812 0.138-1.755 0.138-2.708 0-7.838-3.387-14.884-8.776-19.756l-0.023-0.021-64.256-77.397v-11.52h199.424l154.155 338.048 135.509-338.091h190.123z"></path>
</svg>
